# xmcd
#
# Track frame offsets:
# 150
# 17722
# 32946
# 46253
# 61153
# 75648
# 88091
# 101587
# 115272
# 130010
# 144181
# 160862
# 175735
# 189285
# 203294
# 220623
# 233822
# 247534
# 259653
# 270045
# 284459
# 298387
# 309778
# 317012
#
# Disc length: 4380 seconds
#
#
# Revision: 0
# Processed by: cddbd v1.5.1PL2 Copyright (c) Steve Scherf et al.
# Submitted via: FreeRIP 2.945 
#
DISCID=34111a18
DTITLE=Chico Rey and Paraná - Seleção de Ouro  - Seleção de Ouro 
DYEAR=1999
DGENRE=Country
TTITLE0=Quem Será Seu Outro Amor - Track-01
TTITLE1=Canarinho Prisioneiro - Track-02
TTITLE2=Alma Transparente - Track-03
TTITLE3=Quem Bate Nunca se Lembra - Track-04
TTITLE4=Tranque a Porta e me Beije - Track-05
TTITLE5=Perder Você é Abraçar a Solidão - Track-06
TTITLE6=Amor Rebelde - Track-07
TTITLE7=Só Você - Track-08
TTITLE8=Você Me Enganou - Track-09
TTITLE9=Outros Caminhos Sem Você - Track-10
TTITLE10=Você Não Sabe Amar - Track-11
TTITLE11=Feiticeiro - Track-12
TTITLE12=Capricho do Destino - Track-13
TTITLE13=Encanto e Magia - Track-14
TTITLE14=No Colo da Noite - Track-15
TTITLE15=Chance de Ouro - Track-16
TTITLE16=Saco de Ouro - Track-17
TTITLE17=Amor Com Amor se Paga - Track-18
TTITLE18=Nosso Juramento - Track-19
TTITLE19=De Carona Com a Solidão - Track-20
TTITLE20=A Lua É Testemunha - Track-21
TTITLE21=Fatalidade - Track-22
TTITLE22=Cantando - Track-23
TTITLE23=Pedaço de Minha Vida - Track-24
EXTD=SERTANEJAS
EXTT0=
EXTT1=
EXTT2=
EXTT3=
EXTT4=
EXTT5=
EXTT6=
EXTT7=
EXTT8=
EXTT9=
EXTT10=
EXTT11=
EXTT12=
EXTT13=
EXTT14=
EXTT15=
EXTT16=
EXTT17=
EXTT18=
EXTT19=
EXTT20=
EXTT21=
EXTT22=
EXTT23=
PLAYORDER=
